<svg width="12" height="12" viewBox="0 0 24 24" fill="none" xmlns="http://www.w3.org/2000/svg">
<path fill-rule="evenodd" clip-rule="evenodd" d="M11.75 2C11.1977 2 10.75 2.44772 10.75 3V10.75H3C2.44772 10.75 2 11.1977 2 11.75V12.25C2 12.8023 2.44772 13.25 3 13.25H10.75V21C10.75 21.5523 11.1977 22 11.75 22H12.25C12.8023 22 13.25 21.5523 13.25 21V13.25H21C21.5523 13.25 22 12.8023 22 12.25V11.75C22 11.1977 21.5523 10.75 21 10.75H13.25V3C13.25 2.44772 12.8023 2 12.25 2H11.75Z" fill="white"/>
</svg>
