<svg width="12" height="12" viewBox="0 0 24 24" fill="none" xmlns="http://www.w3.org/2000/svg">
    <path fill-rule="evenodd" clip-rule="evenodd" d="M2.36612 2.36612C1.87796 2.85427 1.87796 3.64573 2.36612 4.13388L10.2322 12L2.36612 19.8661C1.87796 20.3543 1.87796 21.1457 2.36612 21.6339C2.85427 22.122 3.64573 22.122 4.13388 21.6339L12 13.7678L19.8661 21.6339C20.3543 22.122 21.1457 22.122 21.6339 21.6339C22.122 21.1457 22.122 20.3543 21.6339 19.8661L13.7678 12L21.6339 4.13388C22.122 3.64573 22.122 2.85427 21.6339 2.36612C21.1457 1.87796 20.3543 1.87796 19.8661 2.36612L12 10.2322L4.13388 2.36612C3.64573 1.87796 2.85427 1.87796 2.36612 2.36612Z" fill="#A30000"/>
</svg>   