<svg width="24" height="24" viewBox="0 0 24 24" fill="none" xmlns="http://www.w3.org/2000/svg">
<path fill-rule="evenodd" clip-rule="evenodd" d="M17.6998 12.3238C17.1488 13.7011 16.2719 15.1881 15.1593 16.7182C14.4474 17.6969 13.6831 18.6333 12.9189 19.493C12.773 19.6571 12.633 19.8117 12.5 19.9564C12.3672 19.8117 12.227 19.6571 12.0813 19.493C11.3171 18.6333 10.5526 17.6969 9.84067 16.7182C8.72809 15.1881 7.85146 13.7011 7.30045 12.3238C6.8836 11.2818 6.66674 10.3328 6.66674 9.5C6.66674 6.27843 9.27843 3.66674 12.5 3.66674C15.7216 3.66674 18.3333 6.27843 18.3333 9.5C18.3333 10.3328 18.1164 11.2818 17.6998 12.3238ZM12.5 2C8.35798 2 5 5.35775 5 9.5C5 10.5672 5.26315 11.7182 5.75303 12.9427C6.36202 14.4654 7.30539 16.0656 8.49281 17.6984C9.23933 18.7247 10.0373 19.7025 10.8355 20.6004C11.1153 20.9148 11.3751 21.1975 11.609 21.444C11.751 21.5935 11.8537 21.6989 11.9108 21.756C12.2364 22.0813 12.7638 22.0813 13.0892 21.756C13.1463 21.6989 13.249 21.5935 13.391 21.444C13.6249 21.1975 13.8847 20.9148 14.1647 20.6004C14.9627 19.7025 15.7609 18.7247 16.5072 17.6984C17.6948 16.0656 18.6382 14.4654 19.2472 12.9427C19.7369 11.7182 20 10.5672 20 9.5C20 5.35775 16.6422 2 12.5 2ZM12.5 11.1667C11.5798 11.1667 10.8333 10.4202 10.8333 9.5C10.8333 8.57955 11.5798 7.83326 12.5 7.83326C13.4204 7.83326 14.1667 8.57955 14.1667 9.5C14.1667 10.4202 13.4204 11.1667 12.5 11.1667ZM12.5 6.16674C10.6591 6.16674 9.16674 7.65888 9.16674 9.5C9.16674 11.3409 10.6591 12.8333 12.5 12.8333C14.3411 12.8333 15.8333 11.3409 15.8333 9.5C15.8333 7.65888 14.3411 6.16674 12.5 6.16674Z" fill="#273F70"/>
</svg>
